<?xml version="1.0" encoding="iso-8859-1"?>
<!-- Generator: Adobe Illustrator 19.0.0, SVG Export Plug-In . SVG Version: 6.00 Build 0)  -->
<svg version="1.1" id="Capa_1" xmlns="http://www.w3.org/2000/svg" xmlns:xlink="http://www.w3.org/1999/xlink" x="0px" y="0px"
	 viewBox="0 0 475.769 475.769" style="enable-background:new 0 0 475.769 475.769;" xml:space="preserve">
<path fill="#fff" d="M462.637,224.761h-92.023c-2.646-26.945-13.331-51.559-29.633-71.405l46.807-46.811c5.129-5.129,5.129-13.437,0-18.566
	c-5.129-5.129-13.437-5.129-18.566,0l-46.807,46.811c-19.846-16.302-44.46-26.986-71.404-29.632V13.129
	C251.011,5.878,245.133,0,237.881,0s-13.129,5.878-13.129,13.129v92.028c-26.943,2.646-51.555,13.33-71.4,29.632L106.54,87.978
	c-5.129-5.129-13.437-5.129-18.566,0c-5.128,5.129-5.128,13.437,0,18.566l46.812,46.811c-16.302,19.846-26.987,44.461-29.633,71.405
	H13.132c-7.253,0-13.129,5.877-13.129,13.129c0,7.252,5.877,13.129,13.129,13.129h92.022c2.646,26.94,13.331,51.55,29.632,71.395
	l-46.811,46.811c-5.128,5.128-5.128,13.437,0,18.565c2.565,2.565,5.924,3.847,9.283,3.847c3.36,0,6.719-1.282,9.283-3.847
	l46.811-46.81c19.845,16.302,44.457,26.986,71.4,29.632v92.027c0,7.253,5.878,13.129,13.129,13.129s13.129-5.877,13.129-13.129
	v-92.027c26.945-2.646,51.559-13.33,71.405-29.632l46.806,46.81c2.564,2.565,5.924,3.847,9.283,3.847
	c3.359,0,6.718-1.282,9.283-3.847c5.129-5.128,5.129-13.437,0-18.565l-46.807-46.811c16.302-19.844,26.987-44.455,29.633-71.395
	h92.023c7.252,0,13.129-5.878,13.129-13.129C475.766,230.637,469.888,224.761,462.637,224.761z M237.881,345.018
	c-59.072,0-107.133-48.056-107.133-107.128c0-59.073,48.061-107.139,107.133-107.139c59.077,0,107.139,48.065,107.139,107.139
	C345.02,296.962,296.959,345.018,237.881,345.018z"/>
<g>
</g>
<g>
</g>
<g>
</g>
<g>
</g>
<g>
</g>
<g>
</g>
<g>
</g>
<g>
</g>
<g>
</g>
<g>
</g>
<g>
</g>
<g>
</g>
<g>
</g>
<g>
</g>
<g>
</g>
</svg>
