<?xml version="1.0" encoding="iso-8859-1"?>
<!-- Generator: Adobe Illustrator 19.0.0, SVG Export Plug-In . SVG Version: 6.00 Build 0)  -->
<svg version="1.1" id="Capa_1" xmlns="http://www.w3.org/2000/svg" xmlns:xlink="http://www.w3.org/1999/xlink" x="0px" y="0px"
	 viewBox="0 0 546.949 546.949" style="enable-background:new 0 0 546.949 546.949;" xml:space="preserve">
<g>
	<path fill="#fff" d="M115.006,424.423c-7.252,0-13.129,5.878-13.129,13.129v83.557c0,7.253,5.878,13.129,13.129,13.129
		c7.252,0,13.129-5.877,13.129-13.129v-83.557C128.135,430.3,122.257,424.423,115.006,424.423z"/>
	<path fill="#fff" d="M228.637,424.423c-7.252,0-13.129,5.878-13.129,13.129v83.557c0,7.253,5.878,13.129,13.129,13.129
		c7.253,0,13.129-5.877,13.129-13.129v-83.557C241.766,430.3,235.889,424.423,228.637,424.423z"/>
	<path fill="#fff" d="M342.268,424.423c-7.252,0-13.129,5.878-13.129,13.129v20.895c0,7.252,5.878,13.129,13.129,13.129
		c7.252,0,13.129-5.878,13.129-13.129v-20.895C355.398,430.3,349.52,424.423,342.268,424.423z"/>
	<path fill="#fff" d="M342.268,481.772c-7.252,0-13.129,6.072-13.129,13.325c0,7.252,5.878,13.129,13.129,13.129
		c7.252,0,13.129-5.878,13.129-13.129v-0.391C355.398,487.455,349.52,481.772,342.268,481.772z"/>
	<path fill="#fff" d="M171.822,424.423c-7.253,0-13.129,5.878-13.129,13.129v20.895c0,7.252,5.877,13.129,13.129,13.129
		c7.252,0,13.129-5.878,13.129-13.129v-20.895C184.951,430.3,179.073,424.423,171.822,424.423z"/>
	<path fill="#fff" d="M171.822,481.772c-7.253,0-13.129,6.072-13.129,13.325c0,7.252,5.877,13.129,13.129,13.129
		c7.252,0,13.129-5.878,13.129-13.129v-0.391C184.951,487.455,179.073,481.772,171.822,481.772z"/>
	<path fill="#fff" d="M399.079,424.423c-7.252,0-13.129,5.878-13.129,13.129v41.779c0,7.252,5.878,13.129,13.129,13.129
		c7.252,0,13.129-5.878,13.129-13.129v-41.779C412.208,430.3,406.331,424.423,399.079,424.423z"/>
	<path fill="#fff" d="M285.452,424.423c-7.252,0-13.129,5.878-13.129,13.129v41.779c0,7.252,5.878,13.129,13.129,13.129
		c7.253,0,13.129-5.878,13.129-13.129v-41.779C298.582,430.3,292.705,424.423,285.452,424.423z"/>
	<path fill="#fff" d="M533.82,139.133h-46.81c-2.054-12.487-6.95-24.001-14.049-33.873l22.819-22.82c5.129-5.129,5.129-13.437,0-18.566
		c-5.128-5.128-13.437-5.128-18.565,0l-22.821,22.821c-9.87-7.095-21.382-11.99-33.867-14.044V25.84
		c0-7.253-5.878-13.129-13.129-13.129c-7.252,0-13.129,5.877-13.129,13.129v46.81c-12.486,2.054-23.997,6.948-33.868,14.043
		l-22.82-22.82c-5.129-5.128-13.437-5.128-18.566,0c-5.128,5.129-5.128,13.437,0,18.566l22.819,22.819
		c-5.472,7.609-9.637,16.188-12.208,25.447c-9.62,1.747-18.921,4.817-27.576,9.473c-22.366-32.372-59.191-51.974-99.112-51.974
		c-66.469,0-120.54,54.066-120.54,120.534c0,6.616,0.548,13.212,1.631,19.735C37.362,230.434,0,269.012,0,316.155
		c0,48.384,39.367,87.752,87.756,87.752h321.878c48.384,0,87.752-39.368,87.752-87.752c0-36.782-23.346-69.545-57.036-82.182
		c0.328-2.783,0.421-5.53,0.489-8.271c4.793-2.191,9.325-4.831,13.561-7.877l22.815,22.815c2.564,2.564,5.923,3.846,9.282,3.846
		c3.36,0,6.719-1.282,9.283-3.846c5.129-5.129,5.129-13.437,0-18.566l-22.815-22.816c7.095-9.871,11.99-21.383,14.044-33.867h46.81
		c7.252,0,13.129-5.878,13.129-13.129C546.949,145.011,541.072,139.133,533.82,139.133z M471.127,316.155
		c0,33.911-27.588,61.493-61.493,61.493H87.756c-33.911,0-61.497-27.582-61.497-61.493s27.587-61.504,61.497-61.504h30.906
		l-5.492-17.14c-2.996-9.344-4.513-19.027-4.513-28.772c0-51.984,42.296-94.275,94.281-94.275c34.936,0,66.847,19.212,83.274,50.138
		l7.195,13.54l12.279-9.201c6.497-4.871,13.682-8.366,21.235-10.652c6.303-1.908,12.853-3.011,19.573-3.011
		c2.269,0,4.508,0.123,6.72,0.34c28.661,2.816,52.098,23.463,59.21,50.653c1.441,5.511,2.288,11.261,2.288,17.217
		c0,3.012-0.283,6.098-0.73,9.217c-0.349,2.425-0.774,4.865-1.389,7.328l-3.288,13.17l13.279,2.852
		C450.709,262.078,471.127,287.352,471.127,316.155z M437.314,197.752c-10.241-36.066-41.362-63.382-79.448-67.98
		c8.595-18.84,27.507-32.027,49.532-32.027c30.059,0,54.518,24.453,54.518,54.518C461.916,171.273,452.105,187.993,437.314,197.752z
		"/>
</g>
<g>
</g>
<g>
</g>
<g>
</g>
<g>
</g>
<g>
</g>
<g>
</g>
<g>
</g>
<g>
</g>
<g>
</g>
<g>
</g>
<g>
</g>
<g>
</g>
<g>
</g>
<g>
</g>
<g>
</g>
</svg>
