<?xml version="1.0" encoding="iso-8859-1"?>
<!-- Generator: Adobe Illustrator 19.0.0, SVG Export Plug-In . SVG Version: 6.00 Build 0)  -->
<svg version="1.1" id="Capa_1" xmlns="http://www.w3.org/2000/svg" xmlns:xlink="http://www.w3.org/1999/xlink" x="0px" y="0px"
	 viewBox="0 0 336.801 336.801" style="enable-background:new 0 0 336.801 336.801;" xml:space="preserve">
<g>
	<path fill="#fff" d="M43.702,0C23.197,0,6.519,16.679,6.519,37.183c0,20.495,16.679,37.173,37.184,37.173c20.504,0,37.183-16.679,37.183-37.173
		C80.885,16.679,64.206,0,43.702,0z M43.702,48.097c-6.022,0-10.925-4.893-10.925-10.914c0-6.021,4.903-10.924,10.925-10.924
		c6.021,0,10.924,4.903,10.924,10.924C54.626,43.204,49.723,48.097,43.702,48.097z"/>
	<path fill="#fff" d="M317.153,51.758H144.871c-7.252,0-13.129,5.878-13.129,13.129v258.784c0,7.252,5.878,13.129,13.129,13.129
		S158,330.923,158,323.672V206.584h96.645c7.252,0,13.129-5.878,13.129-13.129c0-7.253-5.878-13.129-13.129-13.129H158V78.017
		h159.153c7.253,0,13.129-5.878,13.129-13.129C330.283,57.636,324.406,51.758,317.153,51.758z"/>
</g>
<g>
</g>
<g>
</g>
<g>
</g>
<g>
</g>
<g>
</g>
<g>
</g>
<g>
</g>
<g>
</g>
<g>
</g>
<g>
</g>
<g>
</g>
<g>
</g>
<g>
</g>
<g>
</g>
<g>
</g>
</svg>
