<?xml version="1.0" encoding="iso-8859-1"?>
<!-- Generator: Adobe Illustrator 19.0.0, SVG Export Plug-In . SVG Version: 6.00 Build 0)  -->
<svg version="1.1" id="Capa_1" xmlns="http://www.w3.org/2000/svg" xmlns:xlink="http://www.w3.org/1999/xlink" x="0px" y="0px"
	 viewBox="0 0 497.381 497.381" style="enable-background:new 0 0 497.381 497.381;" xml:space="preserve">
<g>
	<path fill="#fff" d="M440.35,148.496c0.411-3.518,0.616-7.015,0.616-10.472c0-52.098-42.384-94.481-94.471-94.481
		c-15.683,0-30.812,3.825-44.455,11.169c-22.361-32.372-59.184-51.974-99.106-51.974c-66.468,0-120.535,54.067-120.535,120.535
		c0,6.616,0.543,13.211,1.631,19.735C37.357,144.957,0,183.536,0,230.679c0,48.384,39.367,87.752,87.752,87.752h321.877
		c48.384,0,87.752-39.368,87.752-87.752C497.381,193.906,474.035,161.143,440.35,148.496z M409.629,292.172H87.752
		c-33.912,0-61.493-27.582-61.493-61.493s27.581-61.493,61.493-61.493h30.905l-5.487-17.141c-2.996-9.344-4.513-19.027-4.513-28.771
		c0-51.984,42.292-94.276,94.276-94.276c34.936,0,66.847,19.202,83.28,50.128l7.191,13.539l12.278-9.201
		c11.929-8.933,26.044-13.662,40.814-13.662c37.614,0,68.212,30.607,68.212,68.222c0,5.364-0.708,10.924-2.113,16.535l-3.293,13.17
		l13.284,2.852c28.125,6.031,48.538,31.306,48.538,60.098C471.122,264.59,443.54,292.172,409.629,292.172z"/>
	<path fill="#fff" d="M107.189,340.156c-7.252,0-13.129,5.878-13.129,13.129v83.546c0,7.252,5.878,13.129,13.129,13.129
		c7.253,0,13.129-5.878,13.129-13.129v-83.546C120.318,346.033,114.442,340.156,107.189,340.156z"/>
	<path fill="#fff" d="M222.287,340.156c-7.252,0-13.129,5.878-13.129,13.129v83.546c0,7.252,5.878,13.129,13.129,13.129
		c7.253,0,13.129-5.878,13.129-13.129v-83.546C235.417,346.033,229.54,340.156,222.287,340.156z"/>
	<path fill="#fff" d="M279.832,340.156c-7.253,0-13.129,5.878-13.129,13.129v128.228c0,7.253,5.877,13.129,13.129,13.129
		c7.252,0,13.129-5.877,13.129-13.129V353.285C292.961,346.033,287.084,340.156,279.832,340.156z"/>
	<path fill="#fff" d="M164.743,340.156c-7.252,0-13.129,5.878-13.129,13.129v128.228c0,7.253,5.878,13.129,13.129,13.129
		c7.253,0,13.129-5.877,13.129-13.129V353.285C177.873,346.033,171.996,340.156,164.743,340.156z"/>
	<path fill="#fff" d="M337.376,340.156c-7.252,0-13.129,5.878-13.129,13.129v83.546c0,7.252,5.878,13.129,13.129,13.129
		c7.252,0,13.129-5.878,13.129-13.129v-83.546C350.505,346.033,344.627,340.156,337.376,340.156z"/>
	<path fill="#fff" d="M391.267,340.156c-7.252,0-13.129,5.878-13.129,13.129v41.769c0,7.252,5.878,13.129,13.129,13.129
		c7.253,0,13.129-5.878,13.129-13.129v-41.769C404.397,346.033,398.52,340.156,391.267,340.156z"/>
</g>
<g>
</g>
<g>
</g>
<g>
</g>
<g>
</g>
<g>
</g>
<g>
</g>
<g>
</g>
<g>
</g>
<g>
</g>
<g>
</g>
<g>
</g>
<g>
</g>
<g>
</g>
<g>
</g>
<g>
</g>
</svg>
