<?xml version="1.0" encoding="iso-8859-1"?>
<!-- Generator: Adobe Illustrator 19.0.0, SVG Export Plug-In . SVG Version: 6.00 Build 0)  -->
<svg version="1.1" id="Capa_1" xmlns="http://www.w3.org/2000/svg" xmlns:xlink="http://www.w3.org/1999/xlink" x="0px" y="0px"
	 viewBox="0 0 452.403 452.403" style="enable-background:new 0 0 452.403 452.403;" xml:space="preserve">
<path fill="#fff" d="M417.291,321.354l-55.373-31.968c3.517-3.817,7.674-6.929,12.384-7.8c8.349-1.56,16.053,4.38,16.381,4.636
	c5.519,4.626,13.734,3.918,18.401-1.56c4.709-5.519,4.042-13.806-1.477-18.504c-1.692-1.446-17.13-14.001-37.593-10.483
	c-11.809,2.036-22.246,8.923-31.181,20.383l-21.121-12.194l2.081-3.605c3.622-6.278,1.467-14.309-4.811-17.94
	c-6.298-3.611-14.318-1.467-17.94,4.811l-2.078,3.601l-42.502-24.536l42.496-24.533l2.083,3.608
	c2.432,4.216,6.853,6.565,11.386,6.565c2.226,0,4.483-0.564,6.554-1.753c6.278-3.632,8.432-11.663,4.811-17.941l-2.085-3.612
	l21.12-12.193c8.938,11.465,19.375,18.355,31.186,20.391c2.503,0.431,4.923,0.616,7.262,0.616c16.761,0,28.844-9.827,30.331-11.099
	c5.519-4.697,6.186-12.986,1.477-18.504c-4.697-5.519-12.986-6.206-18.504-1.477c-0.062,0.061-7.632,6.01-16.104,4.585
	c-4.78-0.826-8.997-3.97-12.56-7.84l55.375-31.969c6.277-3.631,8.431-11.663,4.811-17.94c-3.642-6.288-11.653-8.422-17.94-4.812
	l-55.379,31.973c-1.548-4.956-2.167-10.112-0.565-14.627c2.872-8.083,11.786-11.694,12.206-11.857
	c6.76-2.471,10.267-9.929,7.858-16.72c-2.421-6.842-9.961-10.411-16.761-7.981c-2.103,0.739-20.71,7.837-27.88,27.316
	c-4.144,11.247-3.4,23.725,2.06,37.195l-21.123,12.195l-2.078-3.601c-3.622-6.287-11.653-8.431-17.94-4.811
	c-6.278,3.631-8.432,11.662-4.812,17.94l2.081,3.605l-42.494,24.534v-49.075h4.165c7.252,0,13.129-5.877,13.129-13.129
	c0-7.252-5.878-13.129-13.129-13.129h-4.165v-24.476c14.363-2.019,25.59-7.541,33.244-16.737
	c13.273-15.94,10.124-35.593,9.724-37.788c-1.313-7.068-8.072-11.581-15.129-10.484c-7.088,1.221-11.858,8.001-10.719,15.099
	c0.009,0.103,1.497,9.858-4.175,16.515c-3.102,3.643-7.88,5.638-12.945,6.776V13.129C239.335,5.877,233.447,0,226.2,0
	c-7.252,0-13.129,5.877-13.129,13.129v63.89c-5.068-1.136-9.849-3.133-12.955-6.777c-5.565-6.534-4.236-16.063-4.17-16.494
	c1.236-7.088-3.467-13.869-10.555-15.171c-7.138-1.292-13.98,3.405-15.293,10.535c-0.4,2.194-3.554,21.847,9.719,37.788
	c7.659,9.198,18.89,14.72,33.254,16.737v24.476h-4.17c-7.252,0-13.129,5.878-13.129,13.129c0,7.253,5.878,13.129,13.129,13.129h4.17
	v49.079l-42.501-24.537l2.082-3.606c3.626-6.278,1.471-14.309-4.807-17.93c-6.266-3.631-14.309-1.487-17.935,4.8l-2.082,3.606
	L126.7,153.586c5.457-13.47,6.203-25.949,2.06-37.196c-7.17-19.479-25.772-26.567-27.869-27.316
	c-6.811-2.4-14.339,1.139-16.766,7.97c-2.431,6.842,1.144,14.341,7.975,16.771c0.087,0.03,9.078,3.662,12.021,11.642
	c1.676,4.554,1.064,9.781-0.505,14.802l-55.377-31.973c-6.267-3.6-14.309-1.477-17.935,4.812c-3.626,6.277-1.472,14.309,4.805,17.94
	l55.38,31.973c-3.519,3.82-7.68,6.934-12.391,7.805c-8.458,1.621-16.053-4.38-16.376-4.636c-5.503-4.606-13.729-3.929-18.406,1.559
	c-4.709,5.519-4.047,13.807,1.477,18.504c1.487,1.272,13.571,11.099,30.331,11.099c2.334,0,4.759-0.185,7.257-0.616
	c11.815-2.036,22.253-8.926,31.19-20.391l21.124,12.197l-2.084,3.608c-3.626,6.278-1.472,14.309,4.806,17.941
	c2.066,1.189,4.323,1.753,6.554,1.753c4.533,0,8.949-2.349,11.381-6.565l2.084-3.609l42.495,24.534l-42.499,24.537l-2.08-3.602
	c-3.631-6.287-11.673-8.442-17.935-4.8c-6.278,3.621-8.432,11.652-4.806,17.93l2.08,3.601l-21.125,12.197
	c-8.935-11.46-19.373-18.347-31.185-20.382c-20.463-3.549-35.896,9.036-37.588,10.483c-5.524,4.698-6.186,12.986-1.477,18.504
	c4.697,5.509,12.986,6.196,18.504,1.478c0.077-0.051,7.709-6.011,16.099-4.586c4.782,0.826,8.999,3.966,12.562,7.831L35.11,321.354
	c-6.277,3.631-8.431,11.663-4.805,17.94c2.432,4.216,6.847,6.565,11.381,6.565c2.231,0,4.488-0.564,6.554-1.754l55.377-31.972
	c1.55,4.96,2.169,10.12,0.567,14.637c-2.877,8.093-11.806,11.704-12.206,11.857c-6.755,2.473-10.267,9.929-7.852,16.73
	c1.908,5.375,6.97,8.73,12.371,8.73c1.456,0,2.943-0.247,4.395-0.759c2.098-0.749,20.699-7.837,27.869-27.305
	c4.144-11.255,3.397-23.743-2.061-37.216l21.126-12.197l2.086,3.613c2.432,4.216,6.847,6.565,11.381,6.565
	c2.231,0,4.488-0.564,6.554-1.754c6.278-3.631,8.432-11.662,4.807-17.94l-2.087-3.613l42.506-24.541v49.079h-4.17
	c-7.252,0-13.129,5.878-13.129,13.129c0,7.253,5.878,13.129,13.129,13.129h4.17v24.476c-14.365,2.019-25.595,7.541-33.254,16.737
	c-13.273,15.94-10.119,35.593-9.719,37.789c1.164,6.308,6.652,10.678,12.857,10.678c0.749,0,1.508-0.071,2.272-0.194
	c7.088-1.222,11.857-8.002,10.724-15.099c-0.02-0.103-1.503-9.858,4.165-16.515c3.106-3.644,7.887-5.64,12.955-6.778v63.902
	c0,7.252,5.878,13.129,13.129,13.129c7.247,0,13.135-5.878,13.135-13.129v-63.901c5.065,1.138,9.843,3.134,12.945,6.777
	c5.559,6.513,4.247,16.012,4.175,16.494c-1.242,7.088,3.466,13.857,10.555,15.17c0.81,0.144,1.6,0.215,2.39,0.215
	c6.216,0,11.735-4.421,12.904-10.749c0.4-2.195,3.549-21.848-9.724-37.789c-7.654-9.197-18.881-14.719-33.244-16.736v-24.478h4.165
	c7.252,0,13.129-5.877,13.129-13.129c0-7.252-5.878-13.129-13.129-13.129h-4.165v-49.074l42.499,24.536l-2.085,3.612
	c-3.621,6.278-1.466,14.309,4.812,17.94c2.071,1.19,4.329,1.754,6.554,1.754c4.533,0,8.954-2.349,11.386-6.565l2.083-3.608
	l21.114,12.19c-5.457,13.473-6.2,25.96-2.057,37.207c7.17,19.479,25.777,26.577,27.88,27.316c1.445,0.513,2.933,0.759,4.389,0.759
	c5.396,0,10.463-3.355,12.371-8.74c2.43-6.832-1.139-14.339-7.981-16.761c-0.082-0.03-9.078-3.662-12.021-11.652
	c-1.68-4.554-1.066-9.78,0.504-14.802l55.378,31.972c2.071,1.19,4.328,1.754,6.554,1.754c4.533,0,8.945-2.349,11.386-6.565
	C425.722,333.017,423.568,324.985,417.291,321.354z"/>
<g>
</g>
<g>
</g>
<g>
</g>
<g>
</g>
<g>
</g>
<g>
</g>
<g>
</g>
<g>
</g>
<g>
</g>
<g>
</g>
<g>
</g>
<g>
</g>
<g>
</g>
<g>
</g>
<g>
</g>
</svg>
