<?xml version="1.0" encoding="iso-8859-1"?>
<!-- Generator: Adobe Illustrator 19.0.0, SVG Export Plug-In . SVG Version: 6.00 Build 0)  -->
<svg version="1.1" id="Capa_1" xmlns="http://www.w3.org/2000/svg" xmlns:xlink="http://www.w3.org/1999/xlink" x="0px" y="0px"
	 viewBox="0 0 497.381 497.381" style="enable-background:new 0 0 497.381 497.381;" xml:space="preserve">
<g>
	<path fill="#fff" d="M440.35,165.179c0.411-3.528,0.616-7.026,0.616-10.472c0-52.098-42.384-94.481-94.471-94.481
		c-15.683,0-30.812,3.825-44.455,11.169c-22.361-32.372-59.184-51.974-99.106-51.974c-66.468,0-120.535,54.067-120.535,120.535
		c0,6.616,0.543,13.211,1.631,19.735C37.357,161.64,0,200.219,0,247.362c0,48.394,39.367,87.762,87.752,87.762h321.877
		c48.384,0,87.752-39.367,87.752-87.762C497.381,210.589,474.035,177.826,440.35,165.179z M409.629,308.865H87.752
		c-33.912,0-61.493-27.592-61.493-61.503s27.581-61.493,61.493-61.493h30.905l-5.487-17.141c-2.996-9.344-4.513-19.027-4.513-28.771
		c0-51.984,42.292-94.276,94.276-94.276c34.936,0,66.847,19.202,83.28,50.128l7.191,13.539l12.278-9.201
		c11.929-8.933,26.044-13.662,40.814-13.662c37.614,0,68.212,30.607,68.212,68.222c0,5.334-0.708,10.893-2.113,16.545l-3.272,13.16
		l13.263,2.852c28.125,6.031,48.538,31.306,48.538,60.098C471.122,281.273,443.54,308.865,409.629,308.865z"/>
	<path fill="#fff" d="M190.192,397.899h-24.146l14.852-28.075c3.396-6.41,0.954-14.359-5.457-17.745c-6.401-3.385-14.36-0.954-17.746,5.457
		l-25.058,47.348c-2.154,4.072-2.021,8.975,0.349,12.914c2.38,3.949,6.647,6.36,11.252,6.36h24.249l-18.115,34.578
		c-3.364,6.421-0.882,14.36,5.539,17.725c1.949,1.016,4.031,1.498,6.083,1.498c4.729,0,9.294-2.554,11.642-7.037l28.187-53.799
		c2.133-4.072,1.98-8.955-0.4-12.894C199.045,400.299,194.788,397.899,190.192,397.899z"/>
	<path fill="#fff" d="M271.666,397.899h-24.146l14.853-28.075c3.395-6.41,0.954-14.359-5.458-17.745c-6.401-3.385-14.36-0.954-17.745,5.457
		l-25.059,47.348c-2.153,4.072-2.021,8.975,0.349,12.914c2.38,3.949,6.647,6.36,11.252,6.36h24.249l-18.114,34.578
		c-3.364,6.421-0.882,14.36,5.539,17.725c1.949,1.016,4.031,1.498,6.084,1.498c4.728,0,9.293-2.554,11.641-7.037l28.187-53.799
		c2.134-4.072,1.98-8.955-0.399-12.894C280.519,400.299,276.262,397.899,271.666,397.899z"/>
	<path fill="#fff" d="M353.142,397.899h-24.147l14.864-28.075c3.395-6.41,0.954-14.35-5.458-17.745c-6.4-3.385-14.36-0.954-17.745,5.457
		l-25.069,47.348c-2.154,4.072-2.021,8.975,0.349,12.914c2.379,3.949,6.647,6.36,11.252,6.36h24.249l-18.115,34.578
		c-3.364,6.421-0.881,14.36,5.539,17.725c1.948,1.016,4.031,1.498,6.083,1.498c4.729,0,9.294-2.554,11.642-7.037l28.187-53.799
		c2.133-4.072,1.98-8.955-0.4-12.894C361.993,400.299,357.737,397.899,353.142,397.899z"/>
</g>
<g>
</g>
<g>
</g>
<g>
</g>
<g>
</g>
<g>
</g>
<g>
</g>
<g>
</g>
<g>
</g>
<g>
</g>
<g>
</g>
<g>
</g>
<g>
</g>
<g>
</g>
<g>
</g>
<g>
</g>
</svg>
