<?xml version="1.0" encoding="iso-8859-1"?>
<!-- Generator: Adobe Illustrator 19.0.0, SVG Export Plug-In . SVG Version: 6.00 Build 0)  -->
<svg version="1.1" id="Capa_1" xmlns="http://www.w3.org/2000/svg" xmlns:xlink="http://www.w3.org/1999/xlink" x="0px" y="0px"
	 viewBox="0 0 524.655 524.655" style="enable-background:new 0 0 524.655 524.655;" xml:space="preserve">
<g>
	<path fill="#fff" d="M204.87,249.767c-7.253,0-13.129,5.878-13.129,13.129c0,7.252,5.877,13.129,13.129,13.129h198.787
		c7.253,0,13.129-5.878,13.129-13.129c0-7.252-5.877-13.129-13.129-13.129H204.87z"/>
	<path fill="#fff" d="M511.525,249.767h-50.652c-7.252,0-13.129,5.878-13.129,13.129c0,7.252,5.878,13.129,13.129,13.129h50.652
		c7.252,0,13.129-5.878,13.129-13.129C524.655,255.645,518.777,249.767,511.525,249.767z"/>
	<path fill="#fff" d="M370.834,201.219c0,7.253,5.878,13.129,13.129,13.129h50.651c7.252,0,13.129-5.877,13.129-13.129
		c0-7.252-5.878-13.129-13.129-13.129h-50.651C376.712,188.089,370.834,193.967,370.834,201.219z"/>
	<path fill="#fff" d="M324.444,155.477h50.651c7.252,0,13.129-5.878,13.129-13.129c0-7.253-5.878-13.129-13.129-13.129h-50.651
		c-7.252,0-13.129,5.877-13.129,13.129C311.314,149.599,317.192,155.477,324.444,155.477z"/>
	<path fill="#fff" d="M467.038,310.358H201.741c-0.015,0-0.027,0.008-0.042,0.008c-0.325-0.002-0.649-0.008-0.974-0.008
		c-32.064,0-62.354,15.407-81.207,41.358c-26.844,36.957-18.618,88.88,18.351,115.734c30.7,22.3,73.904,15.489,96.244-15.252
		c18.721-25.766,12.987-61.955-12.781-80.675c-21.787-15.816-52.385-10.975-68.201,10.811c-13.51,18.607-9.365,44.722,9.232,58.232
		c6.832,4.964,15.15,7.426,23.612,6.78c7.232-0.503,12.688-6.771,12.186-14.012c-0.503-7.232-6.565-12.658-14.012-12.186
		c-1.508,0.154-3.98-0.112-6.37-1.836c-6.872-4.995-8.401-14.668-3.406-21.55c7.303-10.062,21.439-12.32,31.532-4.995
		c14.042,10.206,17.171,29.941,6.965,43.993c-13.817,19.018-40.568,23.275-59.575,9.437c-25.243-18.34-30.865-53.8-12.524-79.054
		c14.083-19.386,36.67-30.465,60.817-30.516c0.051,0,0.102,0,0.153,0c0.018,0,0.034-0.009,0.051-0.009h265.246
		c7.252,0,13.129-5.878,13.129-13.129C480.168,316.235,474.29,310.358,467.038,310.358z"/>
	<path fill="#fff" d="M322.502,214.348c7.252,0,13.129-5.877,13.129-13.129c0-7.252-5.878-13.129-13.129-13.129H98.059
		c-0.018,0-0.034-0.009-0.051-0.009c-0.338,0.03-0.676,0.02-1.016,0.009c-23.683,0-46.045-11.375-59.954-30.525
		C18.698,132.32,24.319,96.85,49.562,78.5c9.212-6.689,20.505-9.396,31.747-7.612c11.252,1.786,21.14,7.847,27.828,17.059
		c10.206,14.053,7.077,33.788-6.975,44.004c-10.062,7.303-24.208,5.057-31.531-5.005c-4.979-6.875-3.458-16.529,3.402-21.541
		c0.007-0.005,0.017-0.005,0.024-0.01c1.087-0.79,2.287-1.334,3.58-1.631c7.067-1.6,11.498-8.636,9.888-15.714
		c-1.385-6.092-6.801-10.216-12.791-10.216c-0.964,0-1.939,0.102-2.923,0.328c-4.77,1.087-9.212,3.098-13.181,5.981
		c-0.022,0.016-0.03,0.041-0.053,0.057c-18.548,13.521-22.674,39.596-9.19,58.174c15.837,21.786,46.435,26.629,68.212,10.822
		c25.766-18.73,31.5-54.918,12.79-80.675C119.57,57.625,103.599,47.84,85.423,44.958c-3.652-0.585-7.314-0.872-10.934-0.872
		c-14.433,0-28.454,4.533-40.353,13.17C-2.833,84.121-11.059,136.033,15.785,172.99c18.853,25.951,49.143,41.358,81.207,41.358
		c0.325,0,0.649-0.006,0.974-0.007c0.015,0,0.027,0.007,0.042,0.007H322.502z"/>
</g>
<g>
</g>
<g>
</g>
<g>
</g>
<g>
</g>
<g>
</g>
<g>
</g>
<g>
</g>
<g>
</g>
<g>
</g>
<g>
</g>
<g>
</g>
<g>
</g>
<g>
</g>
<g>
</g>
<g>
</g>
</svg>
